<?xml version="1.0" encoding="UTF-8" standalone="no"?>
<svg
   xmlns:dc="http://purl.org/dc/elements/1.1/"
   xmlns:cc="http://creativecommons.org/ns#"
   xmlns:rdf="http://www.w3.org/1999/02/22-rdf-syntax-ns#"
   xmlns:svg="http://www.w3.org/2000/svg"
   xmlns="http://www.w3.org/2000/svg"
   xmlns:sodipodi="http://sodipodi.sourceforge.net/DTD/sodipodi-0.dtd"
   xmlns:inkscape="http://www.inkscape.org/namespaces/inkscape"
   id="SvgjsSvg1001"
   width="1040.1129"
   height="244.25702"
   version="1.1"
   sodipodi:docname="logo_line.svg"
   inkscape:version="0.92.4 (5da689c313, 2019-01-14)">
  <metadata
     id="metadata10">
    <rdf:RDF>
      <cc:Work
         rdf:about="">
        <dc:format>image/svg+xml</dc:format>
        <dc:type
           rdf:resource="http://purl.org/dc/dcmitype/StillImage" />
        <dc:title />
      </cc:Work>
    </rdf:RDF>
  </metadata>
  <sodipodi:namedview
     pagecolor="#ffffff"
     bordercolor="#666666"
     borderopacity="1"
     objecttolerance="10"
     gridtolerance="10"
     guidetolerance="10"
     inkscape:pageopacity="0"
     inkscape:pageshadow="2"
     inkscape:window-width="1920"
     inkscape:window-height="1025"
     id="namedview8"
     showgrid="false"
     fit-margin-top="0"
     fit-margin-left="0"
     fit-margin-right="0"
     fit-margin-bottom="0"
     inkscape:zoom="0.39333333"
     inkscape:cx="685.01838"
     inkscape:cy="-11.17078"
     inkscape:window-x="0"
     inkscape:window-y="27"
     inkscape:window-maximized="1"
     inkscape:current-layer="SvgjsSvg1001" />
  <defs
     id="SvgjsDefs1002" />
  <g
     id="g4497"
     transform="matrix(0.83673983,-0.24154596,0.24154596,0.83673983,-6.272768,65.345088)">
    <polygon
       points="90,184.641 210,184.641 150,80.718 "
       id="SvgjsPolygon1008"
       style="fill:#66bb6a" />
    <polygon
       points="214,191.5692 254,260.8512 14,191.5692 "
       id="SvgjsPolygon1009"
       style="fill:#ab47bc" />
    <polygon
       points="82,184.641 2,184.641 182,11.436 "
       id="SvgjsPolygon1010"
       style="fill:#ba68c8" />
    <polygon
       points="154,73.789797 194,4.5077968 254,246.9948 "
       id="SvgjsPolygon1011"
       style="fill:#ce93d8" />
  </g>
  <g
     aria-label="ADONE"
     style="font-style:normal;font-variant:normal;font-weight:normal;font-stretch:normal;font-size:141.77394104px;line-height:1.25;font-family:Pirulen;-inkscape-font-specification:Pirulen;letter-spacing:0px;word-spacing:0px;fill:#ce93d8;fill-opacity:1;stroke:none;stroke-width:3.54434872"
     id="text827-7"
     transform="matrix(1.0019152,0,0,1.0019152,-40.64575,-0.10539)">
    <path
       d="M 461.94259,172.03294 410.47865,91.647119 358.16406,172.03294 h -20.98254 l 66.3502,-99.808851 h 13.75208 l 65.92488,99.808851 z"
       style="font-style:normal;font-variant:normal;font-weight:normal;font-stretch:normal;font-family:Pirulen;-inkscape-font-specification:Pirulen;fill:#ce93d8;fill-opacity:1;stroke-width:3.54434872"
       id="path863"
       inkscape:connector-curvature="0" />
    <path
       d="M 492.3243,172.03294 V 72.224089 h 91.44419 q 10.63305,0 17.72174,1.843061 7.0887,1.843062 11.34192,5.529184 4.25322,3.686123 5.95451,9.215306 1.84306,5.529184 1.84306,12.90143 v 41.82331 q 0,7.0887 -1.84306,12.47611 -1.70129,5.24563 -5.95451,8.78998 -4.25322,3.54435 -11.34192,5.38741 -7.08869,1.84306 -17.72174,1.84306 z m 109.44948,-70.31987 q 0,-4.253219 -0.85064,-7.088698 -0.85065,-2.835479 -2.97725,-4.536766 -1.98484,-1.701287 -5.52919,-2.410157 -3.40257,-0.70887 -8.64821,-0.70887 h -72.58826 v 70.319871 h 72.58826 q 5.24564,0 8.64821,-0.70887 3.54435,-0.70887 5.52919,-2.26838 2.1266,-1.55951 2.97725,-4.25322 0.85064,-2.6937 0.85064,-6.66337 z"
       style="font-style:normal;font-variant:normal;font-weight:normal;font-stretch:normal;font-family:Pirulen;-inkscape-font-specification:Pirulen;fill:#ce93d8;fill-opacity:1;stroke-width:3.54434872"
       id="path865"
       inkscape:connector-curvature="0" />
    <path
       d="m 668.87495,172.03294 q -8.50644,0 -14.46095,-1.70128 -5.9545,-1.84306 -9.7824,-4.96209 -3.68612,-3.2608 -5.38741,-7.65579 -1.70129,-4.395 -1.70129,-9.78241 V 96.325659 q 0,-5.38741 1.70129,-9.782402 1.70129,-4.394992 5.38741,-7.514019 3.8279,-3.2608 9.7824,-4.962088 5.95451,-1.843061 14.46095,-1.843061 h 65.92488 q 8.50643,0 14.46094,1.843061 5.95451,1.701288 9.64063,4.962088 3.82789,3.119027 5.52918,7.514019 1.70129,4.394992 1.70129,9.782402 v 51.605711 q 0,5.38741 -1.70129,9.78241 -1.70129,4.39499 -5.52918,7.65579 -3.68612,3.11903 -9.64063,4.96209 -5.95451,1.70128 -14.46094,1.70128 z m 78.40099,-75.849055 q 0,-9.215306 -12.47611,-9.215306 h -65.92488 q -12.47611,0 -12.47611,9.215306 v 51.889265 q 0,9.2153 12.47611,9.2153 h 65.92488 q 12.47611,0 12.47611,-9.2153 z"
       style="font-style:normal;font-variant:normal;font-weight:normal;font-stretch:normal;font-family:Pirulen;-inkscape-font-specification:Pirulen;fill:#ce93d8;fill-opacity:1;stroke-width:3.54434872"
       id="path867"
       inkscape:connector-curvature="0" />
    <path
       d="M 906.82036,172.03294 800.34813,94.340824 V 172.03294 H 783.90235 V 72.224089 h 16.304 l 99.38353,74.147771 V 72.224089 h 16.44578 v 99.808851 z"
       style="font-style:normal;font-variant:normal;font-weight:normal;font-stretch:normal;font-family:Pirulen;-inkscape-font-specification:Pirulen;fill:#ce93d8;fill-opacity:1;stroke-width:3.54434872"
       id="path869"
       inkscape:connector-curvature="0" />
    <path
       d="M 934.53714,172.03294 V 72.224089 h 102.64436 v 14.74449 h -83.78842 v 24.952211 h 79.53522 v 14.74449 h -79.53522 v 30.62317 h 83.78842 v 14.74449 z"
       style="font-style:normal;font-variant:normal;font-weight:normal;font-stretch:normal;font-family:Pirulen;-inkscape-font-specification:Pirulen;fill:#ce93d8;fill-opacity:1;stroke-width:3.54434872"
       id="path871"
       inkscape:connector-curvature="0" />
  </g>
  <text
     xml:space="preserve"
     style="font-style:normal;font-variant:normal;font-weight:normal;font-stretch:normal;font-size:40px;line-height:1.25;font-family:Rajdhani;-inkscape-font-specification:Rajdhani;letter-spacing:0px;word-spacing:0px;fill:#000000;fill-opacity:1;stroke:none"
     x="233.70479"
     y="-273.48898"
     id="text876"><tspan
       sodipodi:role="line"
       id="tspan874"
       x="233.70479"
       y="-239.33537" /></text>
</svg>
